# xmcd
#
# Track frame offsets:
#	150
#	23451
#	61833
#	131787
#	180839
#	201238
#	225478
#	274935
#	300211
#
# Disc length: 4359 seconds
#
# Revision: 1
# Processed by: cddbd v1.5.2PL0 Copyright (c) Steve Scherf et al.
# Submitted via: audiograbber 1.83.01
#
DISCID=68110509
DTITLE=Grateful Dead - 87-07-07 Roanoke Civic Centre VA
DYEAR=1900
DGENRE=
TTITLE0=Cumberland Blues
TTITLE1=Looks Like Rain
TTITLE2=Eyes Of The World > Jam > Drums
TTITLE3=Space
TTITLE4=The Wheel
TTITLE5=Gimme Some Lovin
TTITLE6=Morning Dew
TTITLE7=Turn On Your Lovelight
TTITLE8=US Blues
EXTD=
EXTT0=
EXTT1=
EXTT2=
EXTT3=
EXTT4=
EXTT5=
EXTT6=
EXTT7=
EXTT8=
PLAYORDER=
